<?xml version="1.0" encoding="utf-8"?>
<!-- Generator: Adobe Illustrator 23.0.3, SVG Export Plug-In . SVG Version: 6.00 Build 0)  -->
<svg version="1.1" id="Layer_1" xmlns="http://www.w3.org/2000/svg" xmlns:xlink="http://www.w3.org/1999/xlink" x="0px" y="0px"
	 viewBox="0 0 68.7 112.9" style="enable-background:new 0 0 68.7 112.9;" xml:space="preserve">
<g>
	<path d="M67.5,110c-4.5-1.7-7.8-0.6-8.9-4.2c-1.2-3.9-3.9-8.1-6.3-12.2v-25c0.2,0,0.3,0.1,0.5,0.1c0.2,0,0.4,0,0.5-0.1
		c0.5-0.3,0.6-2.6,0.6-4.1c0-1.4-1.2-1.6-1.6-1.8v-3.3H53l-0.2-1.9c0,0-0.2,0-0.5,0v-5.9h-0.4v5.9c-0.6,0-1.3,0-1.7-0.1
		c-0.8-0.1-3.2-5.1-3.6-8.1c-0.4-3,0.4-8.8,0.1-9.9S38.4,34,38.4,34s-1-0.4-1.1-3.8c-0.1-3.4,2.1-5.7,0.1-8.7
		c-1.5-2.4-6.5-1.2-7.7,0.6c-1.1,1.8,0.6,3.2-0.2,4.8c-0.8,1.6-1.8,0-3.1-0.5c-1.2-0.5-8.5-20.7-8.4-21c0.1-0.3,1.3-0.8,1.7-1.4
		c0.4-0.6,0.2-2.1-0.1-3.3s-1.4-0.6-2.3-0.6s-2.6,1.4-2.6,1.4V1.1c0,0-0.7,3.3-0.3,4.6c0.4,1.3,1.8,14,2.5,14.5s5.7,10.2,4.4,10.5
		c-1.3,0.3-4.2,5.5-4.2,5.5l-1.8,0.6l0.3,1.6h1.4l0.1,2.5h-1.5l0.2,1.9l1.5-0.1l-0.2,2l-3.5,4l1.3,0.8c0,0,2.7-2.9,4.1-3.7
		c1.4-0.8,2.8,1,2.8,1l-0.6,2.4c0,0,2.8,10.7,1.1,12.3c-1.6,1.5,2.6,3.6-1.4,7.3s-5.6,13-6.2,14.9s-2.7,2.1-3.7,4.6
		c-1,2.5,0.1,2.3,0.1,2.3L1.1,105.5l0.4,0.5c0,0-0.9-1-1.3,0.5c-1.5,5.4,6.8,4.1,7.1,3.6s0.4-1.2,0.4-1.2l1.3,0.1l1.3-3.9l20.6-32
		h1.3c0,0,11,14.9,11,17.8c0,2,5.3,10.4,8.6,15.4v3.6h0.4v-2.9c1.3,1.9,2.1,3.2,2.1,3.2l0.7-0.4l0.2,1.3c0,0,1,1.7,2.4,1.9
		s3.8-0.4,8.1-0.3C70,112.6,68.6,110.4,67.5,110z M51.8,59.3v2.3c-0.2-1-0.3-2.3-0.3-2.3H51.8z M48.1,84.4
		c-1.3-6.4-7.7-19.7-7.7-19.7L40,61.2l-0.3-13.1c0,0,0.7-1.5,0.9-2c0.2-0.5,1.3,9.2,1.3,9.2l7.4,10.2l0.4,0.9c0.4,1,1.2,1.7,2.2,2
		v24.4C50.1,89.9,48.6,87,48.1,84.4z"/>
	<path d="M52.1,51.1c1,0,1.8-0.8,1.8-1.8v-6.1c0-1-0.8-1.8-1.8-1.8c-1,0-1.8,0.8-1.8,1.8v6.1C50.2,50.3,51,51.1,52.1,51.1z"/>
</g>
</svg>
